<svg version="1.1" id="Layer_1" xmlns="http://www.w3.org/2000/svg" xmlns:xlink="http://www.w3.org/1999/xlink" x="0px" y="0px"
	 width="100%" viewBox="0 0 180 180" enable-background="new 0 0 180 180" xml:space="preserve">
<path fill="#0157B3" opacity="1.000000" stroke="none" 
	d="
M1.240826,111.287468 
	C1.000000,97.979103 1.000000,84.958214 1.000000,71.468658 
	C2.741892,65.183617 3.270139,59.091496 5.846806,53.433678 
	C16.948549,29.056581 34.930786,12.283612 60.201595,3.343339 
	C63.516350,2.170650 67.082001,2.454506 70.712524,1.240829 
	C84.020897,1.000000 97.041786,1.000000 110.531342,1.000000 
	C116.178871,3.190305 121.914047,2.939960 127.182953,5.278751 
	C142.043991,11.875354 154.660248,21.131218 164.545853,34.094086 
	C169.805954,40.991592 174.049179,48.402699 177.367477,56.436218 
	C179.246567,60.985439 179.252457,65.817284 180.759094,70.712708 
	C181.000000,84.020897 181.000000,97.041786 181.000000,110.531342 
	C179.258087,116.816383 178.729874,122.908508 176.153198,128.566330 
	C165.051437,152.943420 147.069183,169.716400 121.798370,178.656647 
	C118.483612,179.829330 114.917976,179.545502 111.287460,180.759171 
	C97.979103,181.000000 84.958214,181.000000 71.468658,181.000000 
	C65.183624,179.258102 59.091503,178.729874 53.433689,176.153183 
	C29.056616,165.051437 12.283617,147.069229 3.343348,121.798431 
	C2.170651,118.483665 2.454510,114.917992 1.240826,111.287468 
z"/>
<path fill="#000000" opacity="1.000000" stroke="none" 
	d="
M181.000000,70.531342 
	C178.685776,71.584450 179.273071,69.734840 178.971115,68.602631 
	C174.600800,52.215343 166.598114,37.855705 154.437332,26.019964 
	C142.800079,14.693776 128.974030,7.058883 113.207108,3.039808 
	C112.242157,2.793837 111.200470,2.888588 110.862411,1.383135 
	C133.263321,1.000000 155.527100,1.067535 177.789383,0.915812 
	C180.620056,0.896520 181.092194,1.565851 181.075592,4.270048 
	C180.940979,26.200254 181.000000,48.131649 181.000000,70.531342 
z"/>
<path fill="#000000" opacity="1.000000" stroke="none" 
	d="
M70.531342,1.000000 
	C71.472626,2.009158 70.944641,2.658067 70.072723,2.856646 
	C52.246990,6.916466 37.042805,15.642422 24.613747,28.968803 
	C13.781362,40.583241 6.468722,54.202206 2.885578,69.751793 
	C2.757044,70.309586 2.158619,70.759109 1.389594,71.129547 
	C1.000000,48.736675 1.067538,26.472889 0.915810,4.210597 
	C0.896517,1.379888 1.565902,0.907801 4.270066,0.924400 
	C26.200266,1.059014 48.131657,1.000000 70.531342,1.000000 
z"/>
<path fill="#000000" opacity="1.000000" stroke="none" 
	d="
M1.000000,111.468658 
	C2.361785,110.493637 2.690668,111.347542 2.946110,112.415642 
	C7.192322,130.170593 15.902828,145.403854 29.333315,157.738953 
	C40.889183,168.352325 54.364700,175.597076 69.750626,179.114502 
	C70.308250,179.241974 70.758133,179.840805 71.129112,180.609985 
	C48.736679,181.000000 26.472898,180.932465 4.210612,181.084198 
	C1.379951,181.103485 0.907797,180.434174 0.924397,177.729965 
	C1.059018,155.799759 1.000000,133.868347 1.000000,111.468658 
z"/>
<path fill="#000000" opacity="1.000000" stroke="none" 
	d="
M111.468658,181.000000 
	C110.525894,179.990555 111.055504,179.342636 111.926575,179.143463 
	C129.924698,175.028046 145.275589,166.212204 157.738495,152.666214 
	C168.360840,141.120773 175.598785,127.636200 179.114517,112.249382 
	C179.241928,111.691765 179.840805,111.241867 180.609985,110.870880 
	C181.000000,133.263321 180.932465,155.527100 181.084198,177.789383 
	C181.103485,180.620041 180.434174,181.092209 177.729965,181.075592 
	C155.799759,180.940979 133.868347,181.000000 111.468658,181.000000 
z"/>
<path fill="#FBFDFE" opacity="1.000000" stroke="none" 
	d="
M76.075829,102.216148 
	C73.011383,115.257774 70.018517,127.892181 69.976440,140.999985 
	C69.965050,144.547943 67.952919,146.878082 64.865372,148.354797 
	C52.933189,154.061813 47.090797,150.486877 46.935005,137.511826 
	C46.740314,121.296799 51.277508,105.928329 55.367863,90.506165 
	C58.307907,79.421089 61.845684,68.493385 66.329865,57.918034 
	C67.552704,55.034138 67.264725,54.066959 63.907413,54.376461 
	C54.951488,55.202068 46.562237,57.219833 39.668034,63.576481 
	C36.476444,66.519218 34.056034,65.487206 33.179405,61.215782 
	C32.082191,55.869522 35.235600,49.627804 41.001858,46.225601 
	C49.340950,41.305374 58.657059,39.383320 68.075600,38.129570 
	C73.839348,37.362324 79.698456,37.178631 85.522285,37.031837 
	C91.740761,36.875099 94.161346,39.338280 92.241219,45.351162 
	C88.253525,57.838562 85.633369,70.685837 81.638191,83.157578 
	C79.661285,89.328880 77.972534,95.592499 76.075829,102.216148 
z"/>
<path fill="#FAFCFE" opacity="1.000000" stroke="none" 
	d="
M143.886414,46.552216 
	C138.888687,66.940201 127.565109,82.447899 110.861519,94.181122 
	C109.379692,95.222008 107.625565,95.733437 108.782204,98.312706 
	C111.997322,105.482346 113.062080,113.323288 115.461479,120.755615 
	C115.920792,122.178383 116.359802,123.617012 116.952599,124.985779 
	C119.778938,131.511887 122.734848,132.302307 128.318192,127.870186 
	C133.417557,123.822266 137.831970,119.039253 142.369385,114.389389 
	C143.581406,113.147324 144.792282,111.096558 146.876266,111.948853 
	C149.046371,112.836388 148.812866,115.194885 148.951736,117.169922 
	C149.106171,119.366219 148.856064,121.514198 147.912277,123.514313 
	C141.596237,136.899536 131.245804,145.389435 116.712242,148.218567 
	C107.441887,150.023148 101.159302,145.972519 98.285362,137.021408 
	C96.395500,131.135284 95.913834,124.952904 94.989403,118.870216 
	C94.314873,114.431831 93.584953,109.997955 93.074707,105.539764 
	C92.672768,102.027855 91.728119,99.492111 87.752365,98.262260 
	C84.124649,97.140060 81.480202,94.331161 82.036644,89.920090 
	C82.617706,85.313889 86.511597,85.126190 89.857697,84.326355 
	C90.810715,84.098549 92.008308,83.850578 92.815491,84.219940 
	C99.702957,87.371719 102.574730,82.533096 105.689293,77.977669 
	C114.222214,65.497215 119.209969,51.324387 125.038116,37.554882 
	C127.329041,32.142380 130.696091,30.630562 138.082092,31.962357 
	C142.976883,32.844955 143.556396,36.728081 143.948532,40.622684 
	C144.130997,42.434788 143.947739,44.283710 143.886414,46.552216 
z"/>
</svg>